<?xml version="1.0" standalone="no"?><!DOCTYPE svg PUBLIC "-//W3C//DTD SVG 1.1//EN" "http://www.w3.org/Graphics/SVG/1.1/DTD/svg11.dtd"><svg t="1698047029614" class="icon" viewBox="0 0 1024 1024" version="1.1" xmlns="http://www.w3.org/2000/svg" p-id="2593" data-spm-anchor-id="a313x.search_index.0.i0.b88f3a81ISoQIW" xmlns:xlink="http://www.w3.org/1999/xlink" width="200" height="200"><path d="M899.276 86.684c-362.2 0-655.82 293.62-655.816 655.816h107.708c0-302.712 245.396-548.108 548.108-548.108V86.684z" fill="#e16531" p-id="2594" data-spm-anchor-id="a313x.search_index.0.i4.b88f3a81ISoQIW" class=""></path><path d="M899.276 194.684c-302.552 0-547.82 245.264-547.816 547.816h89.968c0-252.86 204.984-457.844 457.848-457.844V194.684z" fill="#f9f28b" p-id="2595" data-spm-anchor-id="a313x.search_index.0.i5.b88f3a81ISoQIW" class=""></path><path d="M899.276 284.896c-252.728 0-457.604 204.876-457.604 457.604h106.528c0-193.892 157.18-351.076 351.076-351.076V284.896z" fill="#7dc5eb" p-id="2596" data-spm-anchor-id="a313x.search_index.0.i3.b88f3a81ISoQIW" class=""></path><path d="M899.276 388.896c-195.292 0-353.604 158.316-353.604 353.604h82.316c0-149.828 121.46-271.284 271.288-271.284v-82.32z" fill="#c8db8c" p-id="2597" data-spm-anchor-id="a313x.search_index.0.i1.b88f3a81ISoQIW" class=""></path><path d="M238.248 936.6c-3.972 0.472-8.016 0.716-12.116 0.716-55.968 0-101.408-45.44-101.408-101.408s45.44-101.408 101.408-101.408c12.42 0 24.32 2.236 35.32 6.332 17.204-68.628 79.344-119.516 153.272-119.516 64.26 0 119.612 38.444 144.288 93.568a112.784 112.784 0 0 1 26.496-3.136c62.248 0 112.788 50.536 112.788 112.784 0 57.928-43.768 105.712-100.008 112.068a114.188 114.188 0 0 1-25.556 0h-142.868a159.184 159.184 0 0 1-15.14 0.716c-5.104 0-10.156-0.24-15.14-0.716H238.248z" fill="#C4E8FF" p-id="2598" data-spm-anchor-id="a313x.search_index.0.i17.b88f3a81ISoQIW" class="selected"></path></svg>